<?xml version="1.0" standalone="no"?>
<!DOCTYPE svg PUBLIC "-//W3C//DTD SVG 20010904//EN"
 "http://www.w3.org/TR/2001/REC-SVG-20010904/DTD/svg10.dtd">
<svg version="1.0" xmlns="http://www.w3.org/2000/svg"
 width="256.000000pt" height="256.000000pt" viewBox="0 0 256.000000 256.000000"
 preserveAspectRatio="xMidYMid meet">

<g transform="translate(0.000000,256.000000) scale(0.100000,-0.100000)"
fill="#000000" stroke="none">
<path d="M1510 2324 c-44 -32 -112 -64 -122 -58 -4 3 -8 21 -8 40 0 20 -3 34
-8 32 -102 -45 -197 -125 -255 -215 -31 -49 -40 -51 -82 -23 -16 11 -40 20
-53 20 -15 0 -21 4 -16 12 15 24 -40 -22 -57 -48 l-18 -28 -9 25 c-5 13 -11
31 -14 39 -6 19 -65 -62 -110 -150 l-33 -64 1 -216 c0 -133 6 -238 13 -275 22
-102 23 -114 16 -142 l-7 -28 -15 30 c-21 41 -44 66 -55 59 -5 -3 4 -21 20
-39 25 -27 32 -48 42 -119 7 -48 10 -98 7 -111 -2 -16 0 -25 8 -25 7 0 24 -37
39 -83 14 -46 43 -110 64 -142 57 -89 190 -210 270 -248 62 -30 75 -32 172
-32 98 0 109 2 165 31 170 89 289 216 334 357 7 20 18 37 24 37 7 0 20 35 30
78 25 102 50 159 76 167 12 3 21 13 21 21 0 26 -29 14 -55 -23 -14 -21 -25
-31 -26 -23 -3 37 4 78 21 120 20 52 56 219 70 334 8 60 7 94 -4 146 -16 74
-62 192 -100 255 l-25 40 -7 -42 c-3 -24 -10 -40 -15 -38 -4 3 -33 57 -63 120
-30 63 -58 115 -61 115 -3 0 -10 -12 -16 -27 -13 -34 -21 -23 -38 52 -18 75
-25 84 -50 54 l-20 -24 -1 33 c0 38 -4 39 -50 6z m-40 -212 c0 -4 -18 -26 -41
-47 l-40 -40 -80 1 c-43 0 -82 4 -86 8 -15 15 36 47 102 65 75 20 145 26 145
13z m-227 -297 c46 -9 136 -15 215 -15 119 0 146 -4 205 -24 92 -33 115 -50
138 -101 25 -56 42 -216 28 -270 -5 -22 -14 -119 -18 -215 -11 -208 -26 -263
-105 -372 -55 -78 -169 -180 -251 -225 -47 -26 -58 -28 -165 -28 -102 0 -120
3 -160 24 -103 55 -273 259 -314 377 -25 70 -30 175 -17 364 17 254 71 430
144 469 19 10 124 26 197 30 14 0 60 -6 103 -14z"/>
<path d="M972 1552 c-29 -11 -58 -24 -65 -31 -21 -21 0 -21 48 0 48 21 121 23
198 3 35 -8 37 13 1 26 -53 21 -127 21 -182 2z"/>
<path d="M1521 1531 c-25 -7 -42 -31 -22 -31 5 0 32 5 60 11 60 13 120 -1 169
-38 38 -29 54 -24 26 8 -43 49 -153 73 -233 50z"/>
<path d="M990 1413 c-34 -14 -71 -46 -86 -75 -22 -42 -11 -46 15 -5 62 101
216 85 267 -28 7 -16 13 -23 14 -14 0 22 -39 78 -72 102 -27 20 -109 32 -138
20z"/>
<path d="M1015 1368 c-32 -17 -45 -39 -45 -78 0 -36 1 -37 53 -48 92 -19 117
-9 117 49 0 68 -67 109 -125 77z m25 -38 c0 -21 -24 -28 -35 -10 -8 14 3 30
21 30 8 0 14 -9 14 -20z"/>
<path d="M1538 1370 c-49 -15 -108 -72 -108 -105 0 -5 10 4 21 22 65 103 207
96 263 -11 11 -22 21 -35 24 -28 2 6 -3 23 -11 39 -38 73 -113 106 -189 83z"/>
<path d="M1515 1315 c-18 -17 -25 -35 -25 -63 0 -53 17 -65 77 -56 26 4 57 7
68 8 16 1 21 9 23 43 3 35 -2 48 -22 68 -34 34 -88 34 -121 0z m41 -16 c10
-17 -13 -36 -27 -22 -12 12 -4 33 11 33 5 0 12 -5 16 -11z"/>
<path d="M1204 1024 c3 -9 6 -20 6 -25 0 -15 58 -39 97 -39 48 0 83 23 83 55
l0 24 -25 -24 c-34 -35 -96 -35 -131 0 -29 29 -39 32 -30 9z"/>
<path d="M1030 946 c0 -4 12 -32 26 -61 38 -81 148 -164 200 -151 14 4 24 2
24 -4 0 -27 120 4 181 46 30 20 99 109 99 127 0 1 -87 2 -193 2 -186 1 -294
13 -324 37 -7 6 -13 7 -13 4z m277 -73 c97 -6 119 -23 31 -23 -66 0 -180 19
-193 32 -7 7 3 9 30 4 22 -3 81 -9 132 -13z"/>
<path d="M1434 720 c-6 -6 -33 -19 -60 -30 -27 -10 -41 -19 -31 -20 21 0 93
35 102 50 8 13 2 13 -11 0z"/>
<path d="M1187 699 c7 -7 15 -10 18 -7 3 3 -2 9 -12 12 -14 6 -15 5 -6 -5z"/>
</g>
</svg>
