<?xml version="1.0" standalone="no"?>
<!DOCTYPE svg PUBLIC "-//W3C//DTD SVG 20010904//EN"
 "http://www.w3.org/TR/2001/REC-SVG-20010904/DTD/svg10.dtd">
<svg version="1.0" xmlns="http://www.w3.org/2000/svg"
 width="200.000000pt" height="200.000000pt" viewBox="0 0 200.000000 200.000000"
 preserveAspectRatio="xMidYMid meet">

<g transform="translate(0.000000,200.000000) scale(0.100000,-0.100000)"
fill="#000000" stroke="none">
<path d="M825 1815 c-261 -57 -482 -238 -590 -482 -84 -187 -89 -439 -13 -633
37 -95 98 -190 172 -267 80 -85 154 -139 259 -189 120 -56 184 -69 347 -69
163 0 227 13 347 69 105 50 179 104 259 189 151 158 225 346 225 568 0 173
-51 344 -141 467 l-31 43 -54 -45 c-65 -52 -143 -92 -215 -107 l-51 -11 37
-40 c83 -92 126 -243 106 -373 -18 -112 -59 -194 -139 -274 -80 -80 -149 -116
-262 -138 -74 -15 -88 -15 -162 0 -113 22 -182 58 -262 138 -190 190 -193 479
-7 673 137 143 335 190 518 124 77 -28 178 -27 254 2 105 39 208 159 224 262
6 33 3 38 -41 72 l-48 36 -336 -1 c-239 0 -353 -4 -396 -14z"/>
</g>
</svg>
